<?xml version="1.0" encoding="utf-8"?>
<!-- Generator: Adobe Illustrator 18.0.0, SVG Export Plug-In . SVG Version: 6.00 Build 0)  -->
<!DOCTYPE svg PUBLIC "-//W3C//DTD SVG 1.1//EN" "http://www.w3.org/Graphics/SVG/1.1/DTD/svg11.dtd">
<svg version="1.1" id="Layer_1" xmlns="http://www.w3.org/2000/svg" xmlns:xlink="http://www.w3.org/1999/xlink" x="0px" y="0px"
	 viewBox="0 0 1919.8 1077.7" enable-background="new 0 0 1919.8 1077.7" xml:space="preserve">
<path fill="#7EC242" d="M97.8,655.2c-29.8,0.1-59.6,0.1-89.4,0c-2.9,0-6.1,0.6-8.3-2.2c0-216.1,0-432.2-0.1-648.3C0,1.1,0.5,0,4.5,0
	c637,0.1,1274,0.1,1911,0c4,0,4.5,1.2,4.5,4.7c-0.1,216.1-0.1,432.2-0.1,648.3c-1.3,1.8-3.3,2.1-5.3,2.2c-3.7,0.2-7.3,0.1-11,0.1
	c-349.3,0-698.6,0-1047.8,0"/>
<path fill="#FDFDFD" d="M514.9,949.5c-0.9-3-1.1-6,0-9C514.9,943.5,514.9,946.5,514.9,949.5z"/>
<path fill="#FDFDFD" d="M565.9,1028.9c-2.4,0-4.8,0.5-7-0.9C561.3,1028.2,563.8,1027.4,565.9,1028.9z"/>
<path fill="#FDFDFD" d="M579,1029.9c-2,0-4.1,0.4-6-0.9C575,1029.1,577.1,1028.6,579,1029.9z"/>
<path fill="#FDFDFD" d="M589.9,1030.9c-1.7,0.1-3.5,0.3-5-0.9C586.7,1030,588.4,1029.7,589.9,1030.9z"/>
<g>
	<path fill="#D0D2D3" d="M526.8,974.6c8.7,0.5,17.3-0.4,27-0.6c-6.8-4.7-12.9-8.6-18-13.9c2.4,0,4.8,0,7.3,0c1.8,1,3.9-0.2,5.7,0.7
		c1.9,0,3.8,0.1,5.7,0.1c1.5,1,3.4-0.1,4.9,0.7c1.6,0,3.3,0.1,4.9,0.1c1.2,0.9,2.8-0.1,4.1,0.7c18.2,2.1,36.4,4.1,54.1,9.1
		c3.9,1.1,7.8,2.5,11.3,4.5c2.1,1.2,4.6,2.5,4.6,5.3c0,3-2.3,4.7-4.8,6.1c-7.4,4.1-15.5,5.9-23.6,7.6c-17.4,3.7-35.1,5.5-52.8,6.8
		c-15.9,1.1-31.7,1.8-47.6,2.6c-19.6,0.9-39.2,0.9-58.7,0.4c-26.5-0.7-52.9-1.8-79.2-5.4c-1.3-0.2-2.7-0.1-4.1-0.2
		c-0.2-0.1-0.3-0.2-0.5-0.3c-0.8-2.6-1.6-5.3-2.3-8c0.8-2.1-0.6-3.1-2.1-3.8c-6.6-3.5-9.5-9.8-11.9-16.4c-0.5-1.4-1-2.9,0.3-4.2
		c9.6-1.2,19.3-2.6,28.9-3.6c11.6-1.2,23.1-2,34.7-2.9c0.9,1.7-0.2,2.8-1,4c-2.4,3.6-5.8,6.4-9.3,10.3c12.4,0.2,24.1,0.1,35.7-0.3
		c7,0.1,14.1-0.8,21.1-0.5c2.6,0.1,5.1,0.3,7.4,1.8C488.2,975.9,507.5,974.5,526.8,974.6z"/>
	<g>
		<path fill="#AE234F" d="M289.9,877.9c-2.2-0.7-4.3-1.8-5.8-3.6c-3.9-4.3-3.6-8.9,1-12.2c3.1-2.2,5.2-5,6.7-8.5
			c2.9-6.7,6.7-12.8,12.4-17.5c6.1-5,13.1-7.1,20.9-5.2c2.6,0.6,5,0.5,7.5,0c10.9-2.3,20.7,3,24.9,13.4c1.7,4.3,2.7,8.8,3.6,13.3
			c1.4,7.8,4.9,14.2,10.4,19.9c5.8,6,5.9,11,0.9,17.7c-1.4,1.9-2.9,3.6-4.4,5.4c-4.8,6.1-4.8,10.3-0.1,16.5c2.2,2.9,4.4,5.8,4.8,9.7
			c0.7,6.4-1.2,11.6-6.4,15.4c-4.7,3.4-7.1,7.4-6.8,13.4c0.2,4.5-1.8,8.5-7.1,9.6c-2.3,0.7-3.6-0.5-4.5-2.4c-1.1-2.3-2-4.7-1.7-7.4
			c0.3-2,1.9-3.2,3.2-4.5c1.5-1.6,1.9-3.1,0.6-5c-3.2-4.7-5.4-10-7.3-15.3c-0.7-1.9-1.9-3.1-3.8-3.9c-3-1.1-6.1-2.3-8.9-3.9
			c-1.6-0.9-3.1-1.8-3.5-3.7c-0.6-1.8,0.7-3.2,0.9-4.9c1.4-2.9,4.7-3.6,6.7-5.8c0.8-0.9,2.1-1.5,2.2-2.8c0.3-4.5,2.8-8.2,4.4-12.2
			c4.4-11.1-0.1-22.2-10.8-27.3c-4-1.9-8.2-2.7-12.4-3.6c-3.8-0.8-7.3-2.2-10.1-4.9c-2.2-2.1-3.4-1.4-4.7,0.8
			c-0.9,1.5-1.9,3-3.3,4.2c-3.9,3.2-6.1,7.2-6.6,12.2C292.6,876.3,292.2,878,289.9,877.9z"/>
		<path fill="#F0AFAF" d="M327.7,919.3c3.7,2.5,7.8,4.5,12.1,5.6c2.7,0.7,3.9,2.2,4.8,4.8c1.9,5.9,4.2,11.8,8.2,16.7
			c1.1,1.3,0.9,2.3,0.1,3.6c-1.4,2.2-3.4,3.8-5.5,5.4c-0.9,2.1-2.7,2.6-4.7,2.7c-3.9,0.2-7.2-0.7-9.2-5.1
			c-3.5,6.5-4.2,12.9-3.9,19.5c1.3,5.3,2.2,10.6,4.5,15.6c0.8,1.8,0.3,3.4-1.2,4.7l-0.2-0.2c-3.4,3.4-8,3.8-12.4,4.6
			c-9.4,1.8-18.4,0.2-27.1-3.5c-3-1.3-5.8-3.2-6.2-6.9c-1.2-2.6-0.5-5,0.3-7.5c2.3-7.7,4.8-15.3,5.4-23.4c-2.4-2.6-0.1-6.1-1.6-8.9
			c-3.7-4.1-4-8.2,0-12.3c1.3-5.6,4.6-9.4,9.9-11.3c5.2-1.9,10.6-3.4,15.9-4.8C320.5,917.8,324.1,917.6,327.7,919.3z"/>
		<path fill="#FDCEA0" d="M289.9,877.9c2.1-1.9,1-4.6,1.5-6.9c0.6-2.3,1.2-4.3,3-6c4-3.7,7.3-8,10.1-13.7
			c4.2,7.5,11.1,9.2,18.4,10.5c4.7,0.9,9,2.9,12.8,5.9c7.2,5.6,10.1,14.7,7.7,23.3c-1.5,5.5-5.6,10-5.5,16c0,0.7-1.1,1.5-1.8,2.1
			c-2.3,2.1-4.9,3.9-7.7,5.3c-2.3,4.4-6.6,3.6-10.5,4.1c-4.2,1.5-7.8-0.4-11.3-2c-5-2.2-8.5-6.2-11.8-10.4c-1.9-2.4-1.4-5.4-2.2-8.1
			c-1.3-5.6-2.3-11.3-1.9-17.2C290.9,879.7,290.4,878.8,289.9,877.9z"/>
		<path fill="#745360" d="M286.9,986.8c12.4,10.9,26.6,10.7,41.4,6.5c1.4-0.4,2.6-1.6,4.2-0.7c1.8,7,6,12.7,10.4,18.2
			c1.8,2.2,1.4,3.4-0.8,4.6c-3.2,1.8-6.4,3.6-9.6,5.4c-1.2,2.6-3.1,3.3-5.7,2.2c-9.8,2.3-19.5,2.8-29.3,0c-2.9,1.5-4.4-0.4-5.8-2.5
			c-11.3-8.1-11.3-8.1-7.8-21.5C284.9,995,285.9,990.9,286.9,986.8z"/>
		<path fill="#D0D2D3" d="M332.7,992.8c0.3-1.6,0.1-3.1-0.7-4.6c-2.3-5-3.7-10.4-4.1-15.9c0.9-1.4,2-2.7,3.6-3c4.6-1,9-3.2,13.9-2.1
			c1.1,0.3,2,1,2.4,2c2.9,7.3,7.6,14.2,3.7,23.5c2.9-1.9,5.1-2.3,7.6-1.7c1.7,2.3,4.3,4.6,0.9,7.5
			C351,996.6,341.8,994.7,332.7,992.8z"/>
		<path fill="#AE244F" d="M292.8,898c4.7,11.1,12.6,18.1,24.9,19.8c1,1.1-0.1,1.4-0.7,2c-2.9,1.9-6.3,2.6-9.5,3.4
			c-5.9,1.4-10.9,3.9-14.2,9.3c-0.5,0.9-1.5,1.5-2.3,2.2c-3.2-3.1-3.9-7-2.8-11.2c0.7-2.6,0.9-5-0.7-7.3c-1.7-2.5-0.7-4.8,0.7-7.1
			C290.4,905.7,292.4,902.2,292.8,898z"/>
		<path fill="#FDCEA1" d="M291,947c3.9,2.4,2.2,5.7,1.6,8.9c-3.2,4.7-6.5,9.3-10.4,13.6c-1.8,2-3.5,4-3.7,7
			c-0.1,1.7-1.4,2.9-2.7,3.9c-1.3,1.1-2.2,2.4-1.8,4.3c0.2,0.8,0.5,1.7-0.6,2.1c-1,0.4-1.9-0.1-2.6-0.8c-1.3-1.5-1.2-3.2-0.8-5
			c0.6-2.9-0.6-3.8-3.4-2.9c-2.5,0.8-5,1.4-7.5,0c-1.4-0.8-2.6-1.7-2.3-3.5c0.4-1.9,2.1-1.6,3.3-1.4c10.2,1.8,16.7-3.6,22-11.4
			C285.5,957,288.2,952,291,947z"/>
		<path fill="#FDCEA0" d="M357.8,991.7c-1.8-0.1-2.9,0.9-4.1,2.2c-1.3,1.5-3.1,1.9-4.7,0.6c-1.5-1.3,0-2.5,0.8-3.5
			c2.4-3.2,1.8-6.7,0.7-10.1c-1.5-4.3-3.3-8.6-5-12.8c-3.8-3.2-5.1-7.6-3.3-11.3c1.7-0.5,3.3-1,5-1.6c1.5,3.4,1.1,7.9,5.2,9.9
			c-0.3,0.5-0.7,0.9-1,1.4c1,2.5,2.3,4.9,3.1,7.5c1.8,5.8,5.9,9.7,11.1,12.4c3.2,1.6,3.3,2.8,0.4,4.6c-1.7,1.5-3.4,0.4-5.1-0.1
			C359.7,990.5,358.5,990,357.8,991.7z"/>
		<path fill="#A85465" d="M354.7,1032.8c4.9-2.3,5.9-2,8.2,2.7c1.6,3.3,2.9,6.7,3.7,10.2c0.6,2.7-0.1,5.1-1.7,7.3
			c-3.1,4.2-7.7,3.7-9.8-1c-1.4-3.2-2-6.7-4.5-9.4c-2-2.6,0.7-4,1.5-5.9C352.7,1035.2,353.4,1033.8,354.7,1032.8z"/>
		<path fill="#A85465" d="M303.4,1055.1c4.4,2.5,4.4,4,1.5,7.9c-3.7,5.1-8.1,8-14.4,7.3c-2.3-0.2-5-0.4-5.9-2.9
			c-0.9-2.6,1.2-4.2,3-5.7c2-1.7,4-3.2,5.1-5.7c1.1-2,2.8-2.1,4.8-1.7C299.4,1054.7,301.5,1054.4,303.4,1055.1z"/>
		<path fill="#FDCEA1" d="M291.7,1020.6c1.9,0.8,3.9,1.7,5.8,2.5c0.1,8.2,1.3,16.2,2.3,24.3c-1.8,2.4-4,2.7-6.5,1.1
			C291.1,1039.2,291.7,1029.9,291.7,1020.6z"/>
		<path fill="#FDCEA1" d="M326.9,1023c1.9-0.7,3.8-1.5,5.7-2.2c2.4,6.1,6.9,10,13,12c1.7,2.5,1.4,4.5-1.5,5.8
			C336,1036,330.9,1030.1,326.9,1023z"/>
		<path fill="#E1F3FB" d="M293.4,1048.4c2.1-0.9,4.2-1.1,6.5-1.1c3,1.7,3.2,4.7,3.5,7.7c-1.2,2.1-3.2,1.7-5,1.4
			c-1.9-0.3-3.7-0.9-5.6-0.5C292.7,1053.4,292.2,1050.9,293.4,1048.4z"/>
		<path fill="#E1F2FA" d="M344.1,1038.6c0.5-1.9,1-3.9,1.5-5.8c3-1.5,6.1-0.9,9.1,0c0.6,2.3-0.1,4.2-1.6,5.8c-1.1,1.2-2.2,2.3-2.5,4
			C347.7,1042.5,345.7,1040.9,344.1,1038.6z"/>
		<path fill="#E5A578" d="M357.8,991.7c-1.6-0.7-2.5-1.9-1-3.4c1.9-2,3,0.4,4.4,1.1c2.3,3.2,5.7,5.6,6.4,9.8l0.3-0.1
			c-0.1,1.2,1,2.7-0.6,3.6c-1.2,0.7-2.3-0.3-3.3-0.8c-1.7-0.8-3.5-1.5-3.8-3.7C360,996,360.9,993.2,357.8,991.7z"/>
		<path fill="#EDB788" d="M367.6,999.3c-3.1-2.7-6.1-5.3-6.4-9.8c1.6,0.5,3.2,1.1,4.8,1.6C368.2,993.5,369.3,996.2,367.6,999.3z"/>
		<path fill="#E3A97D" d="M317,919.8c0.2-0.7,0.4-1.3,0.7-2c3.8-0.7,7.5-1.7,11-3.3c-0.3,1.6-0.6,3.2-1,4.8
			C324.2,921,320.5,918.5,317,919.8z"/>
		<path fill="#FFFEFE" d="M342.3,956.9c1.1,3.8,2.2,7.5,3.3,11.3c-6,0.8-11.8,2.5-17.7,4.1c-0.8-7.7,0.2-15.1,4.6-21.7
			c0.8-1.2,2.3-2.6,2.5,0C335.2,955.6,338.7,956.1,342.3,956.9z"/>
		<path fill="#DB737E" d="M322.2,898.7c-1.1,7.6-7.3,10.1-14.2,5.7c-0.5-1.9-0.6-3.7,1.4-4.8c3.1-0.2,6.1-0.4,9-1.4
			C319.8,897.8,321.1,897.5,322.2,898.7z"/>
		<path fill="#FEF8F4" d="M322.2,898.7c-4.2,1.5-8.4,2.9-13,2c-1.8,1.5-3.2,0.5-4.4-0.9c-1.6-3.4,1.1-2.6,2.5-2.4
			c4.3,0.7,8.3-0.1,12.3-1.4c1-0.3,2.1-1.3,3-0.3C323.4,896.6,322.6,897.8,322.2,898.7z"/>
		<path fill="#48424C" d="M324.6,879.5c-0.2,1.7-0.8,3.2-2.9,3.1c-1.9-0.1-2.3-1.6-2.2-3.2c0.1-1.9,1.2-3.2,2.9-3.2
			C324.2,876.1,324.6,877.7,324.6,879.5z"/>
		<path fill="#4C454E" d="M297.6,878.4c0.1-1.7,1.3-2.8,2.6-3.1c1.4-0.4,1.6,1.2,1.6,2.2c0,1.5-0.1,3.2-2.1,3.4
			C298.1,881.1,297.8,879.7,297.6,878.4z"/>
		<path fill="#BA405A" d="M319,868.1c3.1-3.9,5.2-3.7,7.8,0.1C324.3,867.5,322.1,867.2,319,868.1z"/>
		<path fill="#E7B081" d="M300.6,891.1c-3.1-1.3-3.7-2.9-0.9-5.2C300.5,887.8,299.7,889.6,300.6,891.1z"/>
		<path fill="#A9346B" d="M304.8,899.8c1.5,0.3,2.9,0.6,4.4,0.9c0.7,1.6-0.6,2.5-1.2,3.7C306.3,903.3,305.3,901.8,304.8,899.8z"/>
		<path fill="#EFBA8B" d="M320.6,908.9c-1.5,2-3.3,2.7-6.2,1.1C316.8,909.3,318.8,909.6,320.6,908.9z"/>
		<path fill="#B93D59" d="M302.4,865.8c0.1,1.3-0.8,1.2-1.6,1.1c-0.7-0.1-1.9,0.4-2.1-0.4c-0.2-1.1,1-1.4,1.8-1.7
			C301.4,864.6,302.2,864.8,302.4,865.8z"/>
	</g>
	<g>
		<path fill="#ECF7FC" d="M182.1,1077.7c-1.6-0.7-3.3-1.2-4.8-2c-4.1-2.1-4.8-3.8-3.5-8.6c1.4-0.5,1.8-1.9,2.4-3.1
			c0.8-1.7,2-2.9,3.9-3.2c4.3-1.9,8.5-1.8,12.6,0.5c1.9,0.5,3.2,1.8,4.4,3.3c0.8,1.1,1.6,2.1,3.2,1.7c1.9,4-0.5,8.2-4.2,9.6
			c-1.6,0.6-3.3,1.2-4.9,1.8C188.1,1077.7,185.1,1077.7,182.1,1077.7z"/>
		<path fill="#695D7A" d="M184.6,981.2c-2.3-0.6-2.1-2.2-1.8-4.1c1.8-9.5,3.5-19.1,5.2-28.6c0.1-0.5,0.1-1,0.3-2.1
			c-3,0.9-5.8,0.6-8.6,0.8c-3.9,1.9-5.6,1.5-8.1-2.1c-13.3-8.4-10.7-5.7-5.4-18c3-6.8,6.7-13.3,11.7-18.9c2.4-2.7,5-4.2,8.8-4
			c3.9,0.2,7.8-0.1,11.8-0.1c1.2-0.8,2.6-0.8,3.9-0.3c4.7,1.7,9.5,2.6,14.3,3.8c0.4,0.2,0.7,0.4,1.1,0.7
			c12.6,5.3,17.9,16.4,22.4,28.2c1.3,3.5,1,6-2.6,7.6c-1.2,4.5,0.2,8.9,0.8,13.1c1,7.4,1,15,3,22.3c0.4,1.4-0.3,2.6-1.4,3.6
			c-8.4,4.4-17.5,4.5-26.5,4.1c-7.1-0.3-14.3-0.9-21.4-2.4C189.3,984.2,186.4,983.9,184.6,981.2z"/>
		<path fill="#FCBB68" d="M184.6,981.2c8.2,1.7,16.4,3.2,24.8,3.7c10.1,0.7,20,0.2,29.7-2.8c3.1,3.6,3.1,7.9,2,12.1
			c-0.4,1.8-0.8,3.4-0.4,5.1c0.5,6.2,0.7,12.4,1.5,18.6c0.5,3.7-0.9,5.2-4.2,5.8c-2,0.3-4,0.7-6,1.1c-3.1,2.1-6.2,2.4-9.3-0.2
			c-7.6-2.1-7.6-2.1-8-10c-0.1-2.7-0.3-5.3-0.4-8c-0.3-0.1-0.7-0.1-1-0.2c-0.9,4.2-1.9,8.3-2.8,12.5c-1.5,7.1-2.4,7.9-9.7,9
			c-1.3,0.7-2.9-0.2-4.2,0.7l0,0c-3.8,1.9-6.6,1.4-9.9-1.5c-9.4-3.5-9.3-3.5-7.6-13.5C181.2,1002.8,182.9,992,184.6,981.2z"/>
		<path fill="#FDCEA0" d="M217.7,908.2l-0.3,0.1l-0.3-0.1c-2-2.2-4.8-2.8-7.5-3.6c-4.4-1.3-9-2.5-11.1-7.3c-3-2.2-4.7-5.9-8.3-7.6
			c-2.6-3.2-4.3-6.8-5-10.9c-0.2-1.5-0.8-2.8-1.6-4.1c-2-3.3-2.3-6.8-1.8-10.6c0.4-3.1,1.8-5.4,4.9-6.3c3-0.8,4.9,0.9,6.6,3
			c0.4,0.5,0.7,1.2,1.6,1.8c2.8-5,7.1-9.1,8.3-15c0.7-3.5,2.7-4.4,5.6-2.4c3.8,2.6,7.9,4,12.3,5c6.1,1.3,12.2,2.9,17.6,6
			c1.8,1,4,2,3.5,4.8c-1.2,5.8-1.4,11.8-3.1,17.6c-2.4,8.3-5.6,16.2-12.9,21.5c-1.3,0.9-2.7,2.2-4.2,2.3
			C218.2,902.7,217.7,905.1,217.7,908.2z"/>
		<path fill="#A85365" d="M242.3,860.9c-5.9-5-13.1-7-20.4-8.6c-5.7-1.3-11.5-2.5-16.6-8c0.3,9.3-6.9,14.1-9.1,21.3
			c-0.3,0.9-0.5,2-1.8,1.8c-1-0.2-1.1-1-1.3-1.8c-0.2-0.8-0.3-1.6-0.6-2.4c-0.9-2.1-2.1-4-4.6-4.1c-2.4,0-3.4,2-4.1,3.9
			c-1.5,4-1.3,7.7,1.8,11c0.7,0.8,1.6,1.4,1.6,2.7c-0.1,4.6,1.9,8.7,3.1,13c-1.8,0.2-2.2-1.4-3-2.4c-5-6.7-7-14.3-6.8-22.6
			c0-1.6,0-3.1,0-4.6c-1.4-0.5-1.1,1.6-2.4,1.2c-0.3-7.3,0.7-14.4,5-20.6c2.5-3.6,5.7-6.6,9.9-7.5c8.4-1.9,15.2-9.7,25.2-6.4
			c10.1,3.3,18.7,7.3,24.1,17.5c3.5,6.6,5.6,12.4,3.4,19.6C243.9,863.5,243.7,861.6,242.3,860.9z"/>
		<path fill="#FDCEA0" d="M171.6,945.1c2.7,0.7,5.4,1.4,8.1,2.1c-2.6,8.9-4.4,17.9-5.5,27.1c-0.3,2.4-0.3,4.3,2.1,6.1
			c3.2,2.4,4.2,6.2,4.2,10.2c0,1.6-0.2,3.5-2.3,3.7c-2,0.2-2.8-1.3-3.3-3c-0.3-0.9-0.6-1.7-1-3.1c-2,3.8-0.8,7-0.2,10.2
			c0.3,1.4,0.7,2.8-0.8,3.6c-1.5,0.8-2.8,0.3-4.1-0.6c-10-7-11.3-13.7-4.6-24c1.5-2.4,1.1-5.3,1.6-7.9
			C167.3,961.4,168.2,952.9,171.6,945.1z"/>
		<path fill="#475D7B" d="M220.6,1067.6c-2-6.3-1-12.2,2.3-17.9c1.3-1,2.7-0.7,3.7,0.3c1.5,1.5,3.3,1.6,5.2,1.8
			c5.4,0.7,9.6,2.9,11.2,8.6c-1.8,9.5-1.8,9.6-11.4,9.5C227.8,1069.9,223.8,1070.8,220.6,1067.6z"/>
		<path fill="#ECF7FC" d="M220.6,1067.6c5.1,0.9,10.2,1.3,15.3,1.4c2.8,0,3.9-1,4.1-3.6c0.1-2.1,1.1-3.9,1.9-5.7
			c-0.5-4.1,2.4-5.4,5.5-6.5c3.6,2.8,6.8,5.8,9.2,9.7c1.7,2.8,1.2,4.6-2.1,5.8c-7.1,2.7-14.4,2.5-21.7,2.4c-3,0-6,0.4-8.9-0.4
			C222.1,1070.3,220.6,1069.7,220.6,1067.6z"/>
		<path fill="#FDCEA1" d="M222.9,1024.7c3.1,0.1,6.2,0.1,9.3,0.2c0.4,6.2,0.9,12.4,1.3,18.5c-2.3,3.2-5.5,3.6-8.9,0.9
			C224,1037.7,223.4,1031.2,222.9,1024.7z"/>
		<path fill="#FDCEA1" d="M186.9,1027.1c3.3,0.5,6.6,1,9.9,1.5c-1.1,5.7-2.2,11.3-3.3,17c-3.6,1.5-6.5,0-9.3-2.1
			C185.1,1038.1,186,1032.6,186.9,1027.1z"/>
		<path fill="#FCCEA1" d="M240.7,999.3c-1.1-5.7-1.2-11.5-1.6-17.2c1.4-1.4,0.8-3,0.6-4.6c-0.9-9.8-1.9-19.7-2.8-29.5
			c-0.1-1.3-1-2.9,0.6-4.1c0.7,10,2,20,3.6,29.9c0.3,2.1,1,4.2,2.3,6c2,3,2.8,6.5,2.4,10.1c-0.2,1.8-0.7,3.9-2.4,4.5
			C240.8,995.4,240.8,997.3,240.7,999.3z"/>
		<path fill="#DDDDDD" d="M192.7,1063c-4.2-2.1-8.6-2.1-13-0.8c-1.8-1.1-1.2-2.7-0.9-4.3c0.3-1.5,1.3-3.1,0.1-4.6
			c0.3-0.6,0.5-1.1,0.8-1.7c3-1.8,6.3-1.9,9.6-1.7c2.4,0.2,4.4,1.1,5.3,3.5C195.2,1056.8,196,1060.3,192.7,1063z"/>
		<path fill="#ECF6FA" d="M193.7,1053.3c-3.3-2-6.9-2.5-10.5-1c-1.5,0.6-2.6,0.4-3.6-0.7c-0.5-3.8,1.3-6.3,4.5-8
			c3.4-0.5,6.3,0.7,9.3,2.1c2.5,2.3,1.4,5.7,2.5,8.5C194.8,1054.9,194.2,1054.3,193.7,1053.3z"/>
		<path fill="#F0AA76" d="M198.5,897.3c5.1,3.1,10.3,5.9,16.4,6.5c3,0.3,2,2.6,2.1,4.4c-6.9,1.7-12.6-1.8-18.7-4
			C198.5,901.8,198.5,899.5,198.5,897.3z"/>
		<path fill="#ECF7FB" d="M224.5,1044.2c3-0.1,6,0.5,8.9-0.9c3.9,0.3,1.8,4,3.4,5.7c-0.3,3.4-4.1,2.4-5.6,4.4
			c-2.3,1.5-3.7-0.3-5.3-1.4c-1-0.7-1.3-2.5-3.1-2.3C223.3,1047.9,221.9,1045.4,224.5,1044.2z"/>
		<path fill="#DDDDDD" d="M231.2,1053.4c1-2.5,3.1-3.8,5.6-4.4c3.7,0.9,7.1,2.7,10.6,4.2c-1.8,2.2-3.7,4.3-5.5,6.5
			C239,1056.4,235.9,1053.6,231.2,1053.4z"/>
		<path fill="#495F7D" d="M193.7,1053.3c0.7,0.3,1.5,0.6,2.2,0.9c2.5,3.6,3.4,7.9,4.3,12.1c0,0.7-0.1,1.4,0,2c0.1,1,0.1,2.1-1,2.4
			c-1.4,0.4-1.3-1-1.7-1.8c-1.1-2.4-2.7-4.4-4.8-5.9C193,1059.8,193.4,1056.5,193.7,1053.3z"/>
		<path fill="#4C627F" d="M178.9,1053.3c1.7,0.6,2.6,1.4,1.8,3.4c-0.6,1.7-0.7,3.6-1,5.5c-1.8,1.6-3.6,3.2-4.2,5.7
			c-0.2,0.7-0.4,1.5-1.2,1.3c-0.9-0.3-0.6-1.4-0.6-2.1C175.1,1062.3,176.9,1057.8,178.9,1053.3z"/>
		<path fill="#FDCEA1" d="M196.8,1028.7c1.2-1.1,2.7-0.8,4.2-0.7C199.7,1028.8,198.2,1028.7,196.8,1028.7z"/>
		<path fill="#E7A04F" d="M220.4,997.6c-2.1,2.6-3.4,4.4-6.2,5.6C215.2,1000.1,217.1,998.8,220.4,997.6z"/>
		<path fill="#FCF0E7" d="M209.9,885.1c-0.3-2.4,0-3.9,2.9-2.4c3.2,1.7,6.7,2.8,10.3,3.4c2.5,0.5,3.2,1.6,2.1,3.8
			c-1,0.5-1.9,1-3.1,1C217.2,890.9,212.6,890,209.9,885.1z"/>
		<path fill="#DB747F" d="M209.9,885.1c3.8,2.4,7.9,3.8,12.2,4.7c0.9,0.7,1,1.7,1,2.7C217.2,896,211.1,892.5,209.9,885.1z"/>
		<path fill="#423D4A" d="M214.5,862.9c3.1-0.3,2.8,1.8,2.7,3.7c-0.1,1.4-1,2.5-2.4,2c-2.3-0.7-1.8-2.7-1.6-4.4
			C214,864.2,214.4,863.7,214.5,862.9z"/>
		<path fill="#423D49" d="M235.3,870.9c-0.1,1.2-0.3,2.5-1.8,2.6c-1.3,0-1.6-1.2-1.7-2.2c-0.1-1.4,0.7-2.3,2-2.5
			C235.3,868.5,235.2,869.8,235.3,870.9z"/>
		<path fill="#E9AC77" d="M233.2,881.6c-0.7-0.8-0.3-1.3,0-1.7c0.7-1-0.3-2.4,0.7-3.3c0.1,0,0.9,0.6,1,1
			C235.4,879.3,235.3,880.8,233.2,881.6z"/>
		<path fill="#B5666E" d="M212.8,855.2c1.8-1.6,3.3-1.7,4.7-0.4c1.1,1,0.2,1.7-1.6,1.3C215,855.8,214.1,855.6,212.8,855.2z"/>
		<path fill="#A52564" d="M223.1,892.5c-0.8-0.7-1-1.7-1-2.7c1,0.1,2.1,0.1,3.1,0.2C224.5,890.8,223.8,891.7,223.1,892.5z"/>
		<path fill="#B1616B" d="M235.8,862.1c-1.3,0-2.4,0.4-3-0.8c-0.1-0.2,0.2-0.9,0.4-0.9C234.4,860.2,235.3,860.5,235.8,862.1z"/>
		<path fill="#EAAE7A" d="M217.1,897.7c-2.4,0.5-3.3-0.1-3.9-1.4C214.2,896.7,215.2,897,217.1,897.7z"/>
		<path fill="#C4C2C6" d="M214.5,862.9c0.2,0.7,1.3,1.3,0.3,2c-0.8,0.6-1-0.6-1.6-0.6C213.6,863.8,214.1,863.4,214.5,862.9z"/>
	</g>
	<path fill="#7EC242" d="M173.9,655.6c0,0,10.7,22.3,34.5,14.9c0,0-2.8,70,72.2,70.2c0,0,8.5,69,73.3,42c0,0,49.6,56.4,113.1-0.6
		c0,0,83.6,50.7,135.5-14c0,0,114.5,42,110.4-59.6c0,0,19.2-9.2,21.1-32.8c0,0,32.8,3.5,51.1-20.1H173.9z"/>
	<g>
		<path fill="#E16030" d="M441.2,917.3c2.1-7.2,4.6-14.3,5.7-21.8c2.5-16.6,0.1-32.5-5.6-48.2c-4.2-11.6-9.9-22.4-15-33.6
			c-1.5-4.1-1.9-8.4-1.8-12.7c0.1-8.9-0.1-17.8,0.1-26.8c0-2-0.3-4.2,1.8-5.4c3.2,5.8,6.5,11.7,9.7,17.5c0.5,0.9,0.9,1.6,1.8,2.1
			c2.4,0.4,3.5,2.4,4.8,4.2c1.8,2.4,3.7,4.7,5.8,6.8c3.8,3.7,6.2,3.1,8.1-1.8c1.2-3.2,2-6.5,2.6-9.8c0.4-2.3,0.2-5,2.4-6.7
			c1.4-16,1.6-32.1,0.2-48.2c-0.7-8.4-5.4-15.4-9.7-22.4c-5-8.2-10.6-16-16.5-23.5c-2.2-1.3-2.6-2.9-0.9-4.9
			c-0.6-2.8,1.8-5.3,0.7-8.2c-0.3-1.7,0.8-2.1,2.1-2.3c4.3-1.8,5.8,1.4,7.5,4.2c0.8,1.3,1.8,2.6,2.6,3.9c2.7,1.4,3.2,4.2,4.2,6.6
			c2.8,4.9,6,9.5,9.7,13.8c2.1,0.1,3.3,3.6,6,1.6c1.1-0.6,0.9-1.5,0.6-2.5c-0.3-1,0.3-1.7,0.9-2.4c0.1-0.5,0.1-1.1,0.2-1.6
			c1.5-6.1,1.5-6.1,7.1-3.2c1,0,2-0.2,2.4,1.1c3.4,2.4,7.6,2.3,11.3,3.6c1.6,0.6,1.7,0.8,1.4,2.4c-0.8,4.1-3,8-1.9,12.4
			c1.9,1.1,3.6,2.6,6.1,1.7c0.9-0.3,1.7,0.4,2.3,1.2c1.6,5.3-0.1,10.5-0.5,15.7c-0.7,10-1.4,20-2.1,30c-1.1,15.6-0.8,31.2-0.8,46.8
			c0,33,4.3,65.5,11.3,97.7c4.9,22.5,14.6,42.8,26.5,62.1c0.6,0.9,1.2,1.8,1.7,2.8c1.1,2.1,0.7,3.6-1.6,4.5
			c-1.9,0.7-3.9,1.2-5.9,1.3c-16.7-0.3-33.4,1.3-50.1,0.9c-2.2,0-4.3,0-6.5-0.3c-3.4-1.7-5.4-4.9-7.4-7.9
			c-9-13.4-15.4-28.1-20.8-43.3C440.8,922.3,441,919.8,441.2,917.3z"/>
		<path fill="#F4774E" d="M526.8,973.5c1.9-1.2,4.3-0.1,6.5-1.2c-2.7-4.4-5.5-8.7-8.1-13.1c-12.5-21.5-19.7-45-24.6-69.2
			c-4.1-20.5-6.4-41.3-7.5-62.2c-1.1-19.7-1-39.4-0.4-59.1c0.6-18.3,2.5-36.5,3.9-54.8c-0.9-2.2,1.4-2.2,2.3-3.2
			c6-6,12.1-12.1,18.1-18.1c1.4-1.6,1.9-4.3,4.9-3.9c0,0.2,0.1,0.3,0.1,0.5c1,0.1,2,0.4,2.3,1.3c1.9,5.5,5,10.7,3.3,16.9
			c-4,6-9.3,11-13,17.2c-0.6,1.5-1.3,3-2.7,4c-1.5,2-3.2,3.9-3.9,6.4c-0.5,1.2-0.3,2.7-1.8,3.4c-0.7,0.4-0.6,1.1-0.6,1.7
			c0,0.9,0,1.8-0.8,2.4c-2,4.8-2.8,9.9-2.6,15.1c-0.5,4-0.6,8,0,12c0.2,2.4-0.6,4.9,1,7.2c0.5,1,1.1,2,0.8,3.2
			c0.1,0.5,0,1.1,0.2,1.5c2.6,5.5,5,5.8,8.8,1.3c0.9-1.1,1.6-2.4,2.4-3.6c0.4-1.3,0.9-2.6,2.1-3.3c0.7-1.3,1.3-2.6,2-3.9
			c0.3-3,2.2-5.2,3.9-7.5c0.9-1.7,1.7-3.3,2.6-5c0.6-2,0.5-4.3,2.5-5.7c2.7-5.4,5.4-10.8,8-16.2c1.7,0.4,2.3,1.7,2.7,3.2
			c2.9,10.2,5.7,20.4,8.6,30.5c0.5,1.8,0.9,3.7-0.5,5.4c-1.1,2.2-3.8,2.7-5,4.8c-0.7,1-0.8,2.5-2.5,2.4c-1.9,1.3-3.6,2.9-4.9,4.9
			c-0.2,1.4-1.1,2.3-2.4,2.6c-1.7,1.3-2.7,3.1-3.8,5c-0.1,0.2-0.1,0.3-0.2,0.5c-7.4,10.5-11.7,22.3-14.7,34.6
			c-3.2,13.2-5,26.6-5.9,40.2c-0.3,5.3-0.7,10.5-0.7,15.7c-0.5,2.5-0.6,4.9,0,7.4c0.2,25.6,10.4,46.7,28.7,64.1
			c6.6,2,11,7.3,16.7,10.7c1,0.6,1.8,1.8,1.3,3.1c-0.4,1.1-1.4,1.5-2.6,1.7c-7,0.9-14,1.3-21.1,0.9
			C528.7,975.3,527.4,975,526.8,973.5z"/>
		<path fill="#E16030" d="M547.3,776.9c-3.6-13-7.2-26.1-10.8-39.1c0.3-0.8,0.6-1.7,1-2.5c0.3-1.9,0.1-4,2.3-5
			c0.3-0.8,0.6-1.6,1-2.4c0.3-1.2,0.8-2.3,1.5-3.3c0.3-0.8,0.6-1.6,1-2.3c0.6-1.4,0.3-3.1,1.6-4.2c0.3-0.5,0.5-1,0.8-1.5
			c0.6-1.4,0.2-3.2,1.6-4.2c1.9-4.4,3.7-8.7,5.6-13.1c-0.3-1.1,0.2-1.8,1-2.4c0.9-2.1,2.3-4,2.7-6.2c1.1-5.8,5.4-7.7,10.2-9.3
			c2.9,1.1,2.2,3.7,2.5,5.9c1.9,4.7-1.1,8.5-2.1,12.7c-2.3,9.8-5.2,19.4-7.6,29.2c-1.1,4.6-2.4,9.2-2.5,14c-0.5,1.5-0.6,2.9,0,4.4
			l0,0c1.5,0.2,2.9,1.1,4.4,0.9c2.9,0.2,5.4-1.4,7.9-2.5c9-3.9,17.7-8.2,26.2-13.1c0.6-0.9,1.6-1.1,2.5-1.5c0.9-0.6,0.9-1.5,0.8-2.4
			c0.5-1.8,0.6-3.5-0.2-5.3c-0.5-1.2,0.1-2.2,0.8-3.2c0-0.3,0.1-0.5,0.1-0.8c0.2-5.2,0.2-5.2,5.3-4.2c0.6,0.1,1.3,0,2-0.1
			c1.1-0.8,2.2-0.5,3.2,0c0.8,0.3,0.8,1.1,1,1.8c0.8,1.1,0.6,2.2-0.1,3.3c-0.5,2.7-0.5,5.5,0,8.2c0.6,1.1,0.9,2.2,0.1,3.3
			c-0.5,2.2,2.3,4.5-0.1,6.6c-1.1,2.1-2.9,3-5.2,3c-1.4,0.3-2.6,1-3.7,1.9c-1.6,2.5-3.9,3.7-6.8,3.8c-1.5,0.2-2.7,1-3.8,2
			c-1.2,2-2.9,2.9-5.2,2.9c-1.5,0.3-2.7,1-3.8,2c-0.7,1.4-2,2-3.5,2.1c-1.8,0.4-3.3,1.5-4.6,2.7c-0.7,1.5-2.2,1.7-3.5,2.2
			c-0.2,0-0.4,0-0.5,0.2c-1.3,2.3-3.7,3-5.9,3.9c-1.7,0.2-2.7,1.5-3.9,2.4c-1.9,3.7-5.9,4.6-9,6.6l0,0c-0.6,1.5-1.9,2-3.3,2.5
			C547.8,776.8,547.5,776.8,547.3,776.9z"/>
		<path fill="#F3774E" d="M426.4,768.8c0,15-0.1,30-0.1,44.9c-2.7-4.4-5.3-8.7-8-13.1c-5.3-10.1-11.9-19.3-18.3-28.7
			c-0.8-1.2-1.5-2.5-2.3-3.8c-2-4.8-1.8-9.7-1.4-14.8c0.7-8.2,1.3-16.5,1.9-24.8c0.7-8.8,1.9-17.5,2.7-26.3c0.2-2.1,1.2-3.9,2.6-5.4
			c0.9-6.6,1.9-13.2,2.5-19.8c0.2-1.8,0.6-2.3,2.3-2.3c2-0.1,2.6,0.6,2.6,2.6c-0.1,7.5,0,14.9,0,22.4c0,1.2,0.1,2.4,0.2,3.7
			c0.6,1.4-0.1,2.9,0.6,4.3c0.4,19.5,5.2,38,12.6,56C424.9,765.3,425.6,767.1,426.4,768.8z"/>
		<path fill="#E16030" d="M403.5,696.9c-1.3,12.1-2.7,24.2-3.7,36.4c-1,11.6-2.1,23.2-2.1,34.9c-10.3-13.7-20.8-27.2-32-40.1
			c-3.4-4-5.1-9.4-8.4-13.7c-5.4-7.1-12.4-11.6-20.7-14.3c-1.3-0.4-2.5-1-3.7-1.4c-1.1-0.4-1.5-0.8-0.7-2c0.9-1.5,1.6-3.1,1.8-4.8
			c0.6-4.1,3-4.7,6.4-3.9c6.2,1.3,12.7,1.6,17.3,6.9c1,1.2,2.6,2.1,4.1,2.5c6.4,1.5,9.6,6.3,12.7,11.4c3.5,5.8,7.4,11.4,12.2,16.2
			c2.4,2.4,5.1,1.9,5.7-1.4c0.5-2.4,1.7-4.8,1.2-7.5c0.7-1.7,0-3.6,0.6-5.3c0.1-0.8,0.1-1.6,0.2-2.4
			C394.7,699.6,394.7,699.6,403.5,696.9z"/>
		<path fill="#E16030" d="M527.6,707.3c-2-6-3-12.4-5.6-18.2c1.8-0.4,2.5-2.3,4-3.1c3.1-1.1,5.4,1.2,8.2,1.7
			c1.3,0.6,2.6,1.1,4.1,0.7c1.3-1.1,2.9-1.4,4.4-0.8c1.3,0.5,2.1,1.3,0.4,2.4c-1.3,1.4-2.7,2.8-4,4.1c-0.5,1.9-1.3,3.5-3.4,4.1
			C533,701.4,530.3,704.4,527.6,707.3z"/>
		<path fill="#F4774E" d="M468.9,974.3c-9.8-0.1-19.6,1-29.4,0.2c-6.8-4.5-9.5-12-13.4-18.5c-1.4-2.3-2.6-4.8-2.2-7.7
			c6.4-10,12.7-20.1,17.2-31.1c4,11.8,8.2,23.5,13.9,34.6C459.1,959.7,464,967,468.9,974.3z"/>
		<path fill="#E16030" d="M423.9,948.3c4.8,9,10.1,17.7,15.6,26.2c-13.1,0.8-26.2,0.6-40.3,0.8c5.8-5.7,11.3-10.6,15.7-16.4
			C418.4,955.9,420.8,951.8,423.9,948.3z"/>
	</g>
</g>
</svg>
