<?xml version="1.0" encoding="utf-8"?>
<!-- Generator: Adobe Illustrator 18.0.0, SVG Export Plug-In . SVG Version: 6.00 Build 0)  -->
<!DOCTYPE svg PUBLIC "-//W3C//DTD SVG 1.1//EN" "http://www.w3.org/Graphics/SVG/1.1/DTD/svg11.dtd">
<svg version="1.1" id="Layer_1" xmlns="http://www.w3.org/2000/svg" xmlns:xlink="http://www.w3.org/1999/xlink" x="0px" y="0px"
	 viewBox="0 0 1919.8 1002" enable-background="new 0 0 1919.8 1002" xml:space="preserve">
<path fill="#7EC242" d="M97.8,655.2c-29.8,0.1-59.6,0.1-89.4,0c-2.9,0-6.1,0.6-8.3-2.2c0-216.1,0-432.2-0.1-648.3C0,1.1,0.5,0,4.5,0
	c637,0.1,1274,0.1,1911,0c4,0,4.5,1.2,4.5,4.7c-0.1,216.1-0.1,432.2-0.1,648.3c-1.3,1.8-3.3,2.1-5.3,2.2c-3.7,0.2-7.3,0.1-11,0.1
	c-349.3,0-698.6,0-1047.8,0"/>
<path fill="#FDFDFD" d="M514.9,947.5c-0.9-3-1.1-6,0-9C514.9,941.5,514.9,944.5,514.9,947.5z"/>
<path fill="#7EC242" d="M173.9,653.6c0,0,10.7,22.3,34.5,14.9c0,0-2.8,70,72.2,70.2c0,0,8.5,69,73.3,42c0,0,49.6,56.4,113.1-0.6
	c0,0,83.6,50.7,135.5-14c0,0,114.5,42,110.4-59.6c0,0,19.2-9.2,21.1-32.8c0,0,32.8,3.5,51.1-20.1H173.9z"/>
<g>
	<path fill="#E16030" d="M441.2,915.3c2.1-7.2,4.6-14.3,5.7-21.8c2.5-16.6,0.1-32.5-5.6-48.2c-4.2-11.6-9.9-22.4-15-33.6
		c-1.5-4.1-1.9-8.4-1.8-12.7c0.1-8.9-0.1-17.8,0.1-26.8c0-2-0.3-4.2,1.8-5.4c3.2,5.8,6.5,11.7,9.7,17.5c0.5,0.9,0.9,1.6,1.8,2.1
		c2.4,0.4,3.5,2.4,4.8,4.2c1.8,2.4,3.7,4.7,5.8,6.8c3.8,3.7,6.2,3.1,8.1-1.8c1.2-3.2,2-6.5,2.6-9.8c0.4-2.3,0.2-5,2.4-6.7
		c1.4-16,1.6-32.1,0.2-48.2c-0.7-8.4-5.4-15.4-9.7-22.4c-5-8.2-10.6-16-16.5-23.5c-2.2-1.3-2.6-2.9-0.9-4.9
		c-0.6-2.8,1.8-5.3,0.7-8.2c-0.3-1.7,0.8-2.1,2.1-2.3c4.3-1.8,5.8,1.4,7.5,4.2c0.8,1.3,1.8,2.6,2.6,3.9c2.7,1.4,3.2,4.2,4.2,6.6
		c2.8,4.9,6,9.5,9.7,13.8c2.1,0.1,3.3,3.6,6,1.6c1.1-0.6,0.9-1.5,0.6-2.5c-0.3-1,0.3-1.7,0.9-2.4c0.1-0.5,0.1-1.1,0.2-1.6
		c1.5-6.1,1.5-6.1,7.1-3.2c1,0,2-0.2,2.4,1.1c3.4,2.4,7.6,2.3,11.3,3.6c1.6,0.6,1.7,0.8,1.4,2.4c-0.8,4.1-3,8-1.9,12.4
		c1.9,1.1,3.6,2.6,6.1,1.7c0.9-0.3,1.7,0.4,2.3,1.2c1.6,5.3-0.1,10.5-0.5,15.7c-0.7,10-1.4,20-2.1,30c-1.1,15.6-0.8,31.2-0.8,46.8
		c0,33,4.3,65.5,11.3,97.7c4.9,22.5,14.6,42.8,26.5,62.1c0.6,0.9,1.2,1.8,1.7,2.8c1.1,2.1,0.7,3.6-1.6,4.5c-1.9,0.7-3.9,1.2-5.9,1.3
		c-16.7-0.3-33.4,1.3-50.1,0.9c-2.2,0-4.3,0-6.5-0.3c-3.4-1.7-5.4-4.9-7.4-7.9c-9-13.4-15.4-28.1-20.8-43.3
		C440.8,920.3,441,917.8,441.2,915.3z"/>
	<path fill="#F4774E" d="M526.8,971.5c1.9-1.2,4.3-0.1,6.5-1.2c-2.7-4.4-5.5-8.7-8.1-13.1c-12.5-21.5-19.7-45-24.6-69.2
		c-4.1-20.5-6.4-41.3-7.5-62.2c-1.1-19.7-1-39.4-0.4-59.1c0.6-18.3,2.5-36.5,3.9-54.8c-0.9-2.2,1.4-2.2,2.3-3.2
		c6-6,12.1-12.1,18.1-18.1c1.4-1.6,1.9-4.3,4.9-3.9c0,0.2,0.1,0.3,0.1,0.5c1,0.1,2,0.4,2.3,1.3c1.9,5.5,5,10.7,3.3,16.9
		c-4,6-9.3,11-13,17.2c-0.6,1.5-1.3,3-2.7,4c-1.5,2-3.2,3.9-3.9,6.4c-0.5,1.2-0.3,2.7-1.8,3.4c-0.7,0.4-0.6,1.1-0.6,1.7
		c0,0.9,0,1.8-0.8,2.4c-2,4.8-2.8,9.9-2.6,15.1c-0.5,4-0.6,8,0,12c0.2,2.4-0.6,4.9,1,7.2c0.5,1,1.1,2,0.8,3.2c0.1,0.5,0,1.1,0.2,1.5
		c2.6,5.5,5,5.8,8.8,1.3c0.9-1.1,1.6-2.4,2.4-3.6c0.4-1.3,0.9-2.6,2.1-3.3c0.7-1.3,1.3-2.6,2-3.9c0.3-3,2.2-5.2,3.9-7.5
		c0.9-1.7,1.7-3.3,2.6-5c0.6-2,0.5-4.3,2.5-5.7c2.7-5.4,5.4-10.8,8-16.2c1.7,0.4,2.3,1.7,2.7,3.2c2.9,10.2,5.7,20.4,8.6,30.5
		c0.5,1.8,0.9,3.7-0.5,5.4c-1.1,2.2-3.8,2.7-5,4.8c-0.7,1-0.8,2.5-2.5,2.4c-1.9,1.3-3.6,2.9-4.9,4.9c-0.2,1.4-1.1,2.3-2.4,2.6
		c-1.7,1.3-2.7,3.1-3.8,5c-0.1,0.2-0.1,0.3-0.2,0.5c-7.4,10.5-11.7,22.3-14.7,34.6c-3.2,13.2-5,26.6-5.9,40.2
		c-0.3,5.3-0.7,10.5-0.7,15.7c-0.5,2.5-0.6,4.9,0,7.4c0.2,25.6,10.4,46.7,28.7,64.1c6.6,2,11,7.3,16.7,10.7c1,0.6,1.8,1.8,1.3,3.1
		c-0.4,1.1-1.4,1.5-2.6,1.7c-7,0.9-14,1.3-21.1,0.9C528.7,973.3,527.4,973,526.8,971.5z"/>
	<path fill="#E16030" d="M547.3,774.9c-3.6-13-7.2-26.1-10.8-39.1c0.3-0.8,0.6-1.7,1-2.5c0.3-1.9,0.1-4,2.3-5c0.3-0.8,0.6-1.6,1-2.4
		c0.3-1.2,0.8-2.3,1.5-3.3c0.3-0.8,0.6-1.6,1-2.3c0.6-1.4,0.3-3.1,1.6-4.2c0.3-0.5,0.5-1,0.8-1.5c0.6-1.4,0.2-3.2,1.6-4.2
		c1.9-4.4,3.7-8.7,5.6-13.1c-0.3-1.1,0.2-1.8,1-2.4c0.9-2.1,2.3-4,2.7-6.2c1.1-5.8,5.4-7.7,10.2-9.3c2.9,1.1,2.2,3.7,2.5,5.9
		c1.9,4.7-1.1,8.5-2.1,12.7c-2.3,9.8-5.2,19.4-7.6,29.2c-1.1,4.6-2.4,9.2-2.5,14c-0.5,1.5-0.6,2.9,0,4.4l0,0
		c1.5,0.2,2.9,1.1,4.4,0.9c2.9,0.2,5.4-1.4,7.9-2.5c9-3.9,17.7-8.2,26.2-13.1c0.6-0.9,1.6-1.1,2.5-1.5c0.9-0.6,0.9-1.5,0.8-2.4
		c0.5-1.8,0.6-3.5-0.2-5.3c-0.5-1.2,0.1-2.2,0.8-3.2c0-0.3,0.1-0.5,0.1-0.8c0.2-5.2,0.2-5.2,5.3-4.2c0.6,0.1,1.3,0,2-0.1
		c1.1-0.8,2.2-0.5,3.2,0c0.8,0.3,0.8,1.1,1,1.8c0.8,1.1,0.6,2.2-0.1,3.3c-0.5,2.7-0.5,5.5,0,8.2c0.6,1.1,0.9,2.2,0.1,3.3
		c-0.5,2.2,2.3,4.5-0.1,6.6c-1.1,2.1-2.9,3-5.2,3c-1.4,0.3-2.6,1-3.7,1.9c-1.6,2.5-3.9,3.7-6.8,3.8c-1.5,0.2-2.7,1-3.8,2
		c-1.2,2-2.9,2.9-5.2,2.9c-1.5,0.3-2.7,1-3.8,2c-0.7,1.4-2,2-3.5,2.1c-1.8,0.4-3.3,1.5-4.6,2.7c-0.7,1.5-2.2,1.7-3.5,2.2
		c-0.2,0-0.4,0-0.5,0.2c-1.3,2.3-3.7,3-5.9,3.9c-1.7,0.2-2.7,1.5-3.9,2.4c-1.9,3.7-5.9,4.6-9,6.6l0,0c-0.6,1.5-1.9,2-3.3,2.5
		C547.8,774.8,547.5,774.8,547.3,774.9z"/>
	<path fill="#F3774E" d="M426.4,766.8c0,15-0.1,30-0.1,44.9c-2.7-4.4-5.3-8.7-8-13.1c-5.3-10.1-11.9-19.3-18.3-28.7
		c-0.8-1.2-1.5-2.5-2.3-3.8c-2-4.8-1.8-9.7-1.4-14.8c0.7-8.2,1.3-16.5,1.9-24.8c0.7-8.8,1.9-17.5,2.7-26.3c0.2-2.1,1.2-3.9,2.6-5.4
		c0.9-6.6,1.9-13.2,2.5-19.8c0.2-1.8,0.6-2.3,2.3-2.3c2-0.1,2.6,0.6,2.6,2.6c-0.1,7.5,0,14.9,0,22.4c0,1.2,0.1,2.4,0.2,3.7
		c0.6,1.4-0.1,2.9,0.6,4.3c0.4,19.5,5.2,38,12.6,56C424.9,763.3,425.6,765.1,426.4,766.8z"/>
	<path fill="#E16030" d="M403.5,694.9c-1.3,12.1-2.7,24.2-3.7,36.4c-1,11.6-2.1,23.2-2.1,34.9c-10.3-13.7-20.8-27.2-32-40.1
		c-3.4-4-5.1-9.4-8.4-13.7c-5.4-7.1-12.4-11.6-20.7-14.3c-1.3-0.4-2.5-1-3.7-1.4c-1.1-0.4-1.5-0.8-0.7-2c0.9-1.5,1.6-3.1,1.8-4.8
		c0.6-4.1,3-4.7,6.4-3.9c6.2,1.3,12.7,1.6,17.3,6.9c1,1.2,2.6,2.1,4.1,2.5c6.4,1.5,9.6,6.3,12.7,11.4c3.5,5.8,7.4,11.4,12.2,16.2
		c2.4,2.4,5.1,1.9,5.7-1.4c0.5-2.4,1.7-4.8,1.2-7.5c0.7-1.7,0-3.6,0.6-5.3c0.1-0.8,0.1-1.6,0.2-2.4
		C394.7,697.6,394.7,697.6,403.5,694.9z"/>
	<path fill="#E16030" d="M527.6,705.3c-2-6-3-12.4-5.6-18.2c1.8-0.4,2.5-2.3,4-3.1c3.1-1.1,5.4,1.2,8.2,1.7c1.3,0.6,2.6,1.1,4.1,0.7
		c1.3-1.1,2.9-1.4,4.4-0.8c1.3,0.5,2.1,1.3,0.4,2.4c-1.3,1.4-2.7,2.8-4,4.1c-0.5,1.9-1.3,3.5-3.4,4.1
		C533,699.4,530.3,702.4,527.6,705.3z"/>
	<path fill="#F4774E" d="M468.9,972.3c-9.8-0.1-19.6,1-29.4,0.2c-6.8-4.5-9.5-12-13.4-18.5c-1.4-2.3-2.6-4.8-2.2-7.7
		c6.4-10,12.7-20.1,17.2-31.1c4,11.8,8.2,23.5,13.9,34.6C459.1,957.7,464,965,468.9,972.3z"/>
	<path fill="#E16030" d="M423.9,946.3c4.8,9,10.1,17.7,15.6,26.2c-13.1,0.8-26.2,0.6-40.3,0.8c5.8-5.7,11.3-10.6,15.7-16.4
		C418.4,953.9,420.8,949.8,423.9,946.3z"/>
</g>
<path fill="#D0D2D3" d="M443.5,1002c-1.2-0.9-2.6-0.8-3.9-0.8c-29.1-0.7-58.1-2.9-86.9-7.5c-10.9-1.8-21.9-3.7-32-8.6
	c-1.3-0.7-2.7-1.4-3.8-2.4c-3.4-2.9-3.3-6.2,0.4-8.8c4.7-3.3,10.1-4.8,15.5-6.2c17.5-4.6,35.4-6.9,53.4-8.4
	c9.8-0.8,19.6-1.6,29.4-2.4c-4.4,5.9-9.9,10.7-15.9,16.5c14.2-0.3,27.4,0,40.5-0.9c0,0-0.1,0.3-0.1,0.3c0.3,0.1,0.7,0.1,1,0.2
	c9.6-0.2,19.1-0.4,28.7-0.7c21.8,0.4,43.5-1,65.3-0.9c6.5,0,12.9,0,19.4,0c0.1-0.4,0.1-0.8,0.2-1.2c-6.2-3.9-12.2-8-17.4-13.3
	c19,0.9,37.9,2.7,56.7,5.3c10.3,1.5,20.5,3.3,30.5,6.2c3.8,1.1,7.6,2.4,11.1,4.3c2.4,1.3,5.1,2.7,5.1,5.9c0,3.2-2.6,4.6-5.1,5.9
	c-7.5,4-15.6,5.8-23.8,7.5c-17.4,3.5-35.1,5.5-52.8,6.9c-15,1.2-30,2.3-45,2.4c-1.1,0-2.2,0.1-3.1,0.8
	C488.4,1002,465.9,1002,443.5,1002z"/>
</svg>
